{
	"asset":{
		"generator":"Khronos glTF Blender I/O v4.2.57",
		"version":"2.0"
	},
	"scene":0,
	"scenes":[
		{
			"name":"Scene",
			"nodes":[
				0,
				2
			]
		}
	],
	"nodes":[
		{
			"mesh":0,
			"name":"TerrainCalculator",
			"translation":[
				0,
				0.6693949699401855,
				0
			]
		},
		{
			"mesh":1,
			"name":"Boulder.008",
			"rotation":[
				-0.9928216934204102,
				-0.02560773678123951,
				-0.11133939772844315,
				0.03539656847715378
			],
			"scale":[
				0.9577759504318237,
				1.332106351852417,
				0.9176375865936279
			],
			"translation":[
				-14.645506858825684,
				7.784505367279053,
				13.033591270446777
			]
		},
		{
			"children":[
				1
			],
			"name":"Boulders",
			"translation":[
				15.428362846374512,
				0,
				0
			]
		}
	],
	"materials":[
		{
			"name":"BoulderMat",
			"normalTexture":{
				"index":0
			},
			"occlusionTexture":{
				"index":1
			},
			"pbrMetallicRoughness":{
				"baseColorTexture":{
					"index":2
				},
				"metallicFactor":0,
				"metallicRoughnessTexture":{
					"index":1
				}
			}
		},
		{
			"doubleSided":true,
			"name":"RocksMat",
			"normalTexture":{
				"index":3
			},
			"occlusionTexture":{
				"index":4
			},
			"pbrMetallicRoughness":{
				"baseColorTexture":{
					"index":5
				},
				"metallicFactor":0,
				"metallicRoughnessTexture":{
					"index":4
				}
			}
		},
		{
			"name":"FlatBoulderMat",
			"normalTexture":{
				"index":6
			},
			"occlusionTexture":{
				"index":7
			},
			"pbrMetallicRoughness":{
				"baseColorTexture":{
					"index":8
				},
				"metallicFactor":0,
				"metallicRoughnessTexture":{
					"index":7
				}
			}
		},
		{
			"doubleSided":true,
			"name":"RockpileMat",
			"normalTexture":{
				"index":9
			},
			"occlusionTexture":{
				"index":10
			},
			"pbrMetallicRoughness":{
				"baseColorTexture":{
					"index":11
				},
				"metallicFactor":0,
				"metallicRoughnessTexture":{
					"index":10
				}
			}
		},
		{
			"alphaMode":"MASK",
			"name":"ShrubMat",
			"normalTexture":{
				"index":12
			},
			"occlusionTexture":{
				"index":13
			},
			"pbrMetallicRoughness":{
				"baseColorTexture":{
					"index":14
				},
				"metallicFactor":0,
				"metallicRoughnessTexture":{
					"index":13
				}
			}
		}
	],
	"meshes":[
		{
			"name":"GroundFlatMesh",
			"primitives":[
				{
					"attributes":{
						"POSITION":0,
						"NORMAL":1,
						"TEXCOORD_0":2
					},
					"indices":3
				}
			]
		},
		{
			"name":"BounderMesh",
			"primitives":[
				{
					"attributes":{
						"POSITION":4,
						"NORMAL":5,
						"TEXCOORD_0":6,
						"COLOR_0":7,
						"COLOR_1":8
					},
					"indices":9,
					"material":0
				},
				{
					"attributes":{
						"POSITION":10,
						"NORMAL":11,
						"TEXCOORD_0":12,
						"COLOR_0":13,
						"COLOR_1":14
					},
					"indices":15,
					"material":1
				},
				{
					"attributes":{
						"POSITION":16,
						"NORMAL":17,
						"TEXCOORD_0":18,
						"COLOR_0":19,
						"COLOR_1":20
					},
					"indices":21,
					"material":2
				},
				{
					"attributes":{
						"POSITION":22,
						"NORMAL":23,
						"TEXCOORD_0":24,
						"COLOR_0":25,
						"COLOR_1":26
					},
					"indices":27,
					"material":3
				},
				{
					"attributes":{
						"POSITION":28,
						"NORMAL":29,
						"TEXCOORD_0":30,
						"COLOR_0":31,
						"COLOR_1":32
					},
					"indices":33,
					"material":4
				}
			]
		}
	],
	"textures":[
		{
			"sampler":0,
			"source":0
		},
		{
			"sampler":0,
			"source":1
		},
		{
			"sampler":0,
			"source":2
		},
		{
			"sampler":0,
			"source":3
		},
		{
			"sampler":0,
			"source":4
		},
		{
			"sampler":0,
			"source":5
		},
		{
			"sampler":0,
			"source":6
		},
		{
			"sampler":0,
			"source":7
		},
		{
			"sampler":0,
			"source":8
		},
		{
			"sampler":0,
			"source":9
		},
		{
			"sampler":0,
			"source":10
		},
		{
			"sampler":0,
			"source":11
		},
		{
			"sampler":0,
			"source":12
		},
		{
			"sampler":0,
			"source":13
		},
		{
			"sampler":0,
			"source":14
		}
	],
	"images":[
		{
			"mimeType":"image/png",
			"name":"Boulder_normal",
			"uri":"Boulder_normal.png"
		},
		{
			"mimeType":"image/png",
			"name":"Boulder_orm",
			"uri":"Boulder_orm.png"
		},
		{
			"mimeType":"image/png",
			"name":"Boulder_albedo",
			"uri":"Boulder_albedo.png"
		},
		{
			"mimeType":"image/png",
			"name":"Rocks_normal",
			"uri":"Rocks_normal.png"
		},
		{
			"mimeType":"image/png",
			"name":"Rocks_orm",
			"uri":"Rocks_orm.png"
		},
		{
			"mimeType":"image/png",
			"name":"Rocks_albedo",
			"uri":"Rocks_albedo.png"
		},
		{
			"mimeType":"image/png",
			"name":"FlatBoulder_normal",
			"uri":"FlatBoulder_normal.png"
		},
		{
			"mimeType":"image/png",
			"name":"FlatBoulder_orm",
			"uri":"FlatBoulder_orm.png"
		},
		{
			"mimeType":"image/png",
			"name":"FlatBoulder_albedo",
			"uri":"FlatBoulder_albedo.png"
		},
		{
			"mimeType":"image/png",
			"name":"Rockpile_normal",
			"uri":"Rockpile_normal.png"
		},
		{
			"mimeType":"image/png",
			"name":"Rockpile_orm",
			"uri":"Rockpile_orm.png"
		},
		{
			"mimeType":"image/png",
			"name":"Rockpile_albedo",
			"uri":"Rockpile_albedo.png"
		},
		{
			"mimeType":"image/png",
			"name":"Shrub_normal",
			"uri":"Shrub_normal.png"
		},
		{
			"mimeType":"image/png",
			"name":"Shrub_orm",
			"uri":"Shrub_orm.png"
		},
		{
			"mimeType":"image/png",
			"name":"Shrub_albedo",
			"uri":"Shrub_albedo.png"
		}
	],
	"accessors":[
		{
			"bufferView":0,
			"componentType":5126,
			"count":4225,
			"max":[
				20.000001907348633,
				-0.6693944931030273,
				20.000003814697266
			],
			"min":[
				-20.000001907348633,
				-0.6693954467773438,
				-20.000001907348633
			],
			"type":"VEC3"
		},
		{
			"bufferView":1,
			"componentType":5126,
			"count":4225,
			"type":"VEC3"
		},
		{
			"bufferView":2,
			"componentType":5126,
			"count":4225,
			"type":"VEC2"
		},
		{
			"bufferView":3,
			"componentType":5123,
			"count":24576,
			"type":"SCALAR"
		},
		{
			"bufferView":4,
			"componentType":5126,
			"count":23735,
			"max":[
				23.282236099243164,
				8.43563461303711,
				37.297889709472656
			],
			"min":[
				-14.769647598266602,
				-8.125031471252441,
				-9.398171424865723
			],
			"type":"VEC3"
		},
		{
			"bufferView":5,
			"componentType":5126,
			"count":23735,
			"type":"VEC3"
		},
		{
			"bufferView":6,
			"componentType":5126,
			"count":23735,
			"type":"VEC2"
		},
		{
			"bufferView":7,
			"componentType":5121,
			"count":23735,
			"normalized":true,
			"type":"VEC4"
		},
		{
			"bufferView":8,
			"componentType":5126,
			"count":23735,
			"type":"VEC3"
		},
		{
			"bufferView":9,
			"componentType":5123,
			"count":125184,
			"type":"SCALAR"
		},
		{
			"bufferView":10,
			"componentType":5126,
			"count":17267,
			"max":[
				32.73363494873047,
				8.441671371459961,
				42.70598602294922
			],
			"min":[
				-16.727630615234375,
				-7.795299053192139,
				-9.11141586303711
			],
			"type":"VEC3"
		},
		{
			"bufferView":11,
			"componentType":5126,
			"count":17267,
			"type":"VEC3"
		},
		{
			"bufferView":12,
			"componentType":5126,
			"count":17267,
			"type":"VEC2"
		},
		{
			"bufferView":13,
			"componentType":5121,
			"count":17267,
			"normalized":true,
			"type":"VEC4"
		},
		{
			"bufferView":14,
			"componentType":5126,
			"count":17267,
			"type":"VEC3"
		},
		{
			"bufferView":15,
			"componentType":5123,
			"count":68916,
			"type":"SCALAR"
		},
		{
			"bufferView":16,
			"componentType":5126,
			"count":15912,
			"max":[
				22.83355140686035,
				8.215901374816895,
				36.466888427734375
			],
			"min":[
				-16.592565536499023,
				-5.951714038848877,
				-6.791922569274902
			],
			"type":"VEC3"
		},
		{
			"bufferView":17,
			"componentType":5126,
			"count":15912,
			"type":"VEC3"
		},
		{
			"bufferView":18,
			"componentType":5126,
			"count":15912,
			"type":"VEC2"
		},
		{
			"bufferView":19,
			"componentType":5121,
			"count":15912,
			"normalized":true,
			"type":"VEC4"
		},
		{
			"bufferView":20,
			"componentType":5126,
			"count":15912,
			"type":"VEC3"
		},
		{
			"bufferView":21,
			"componentType":5123,
			"count":79872,
			"type":"SCALAR"
		},
		{
			"bufferView":22,
			"componentType":5126,
			"count":115273,
			"max":[
				22.430511474609375,
				8.296150207519531,
				37.21578598022461
			],
			"min":[
				-6.762106418609619,
				-0.9782839417457581,
				-6.396522045135498
			],
			"type":"VEC3"
		},
		{
			"bufferView":23,
			"componentType":5126,
			"count":115273,
			"type":"VEC3"
		},
		{
			"bufferView":24,
			"componentType":5126,
			"count":115273,
			"type":"VEC2"
		},
		{
			"bufferView":25,
			"componentType":5121,
			"count":115273,
			"normalized":true,
			"type":"VEC4"
		},
		{
			"bufferView":26,
			"componentType":5126,
			"count":115273,
			"type":"VEC3"
		},
		{
			"bufferView":27,
			"componentType":5125,
			"count":247152,
			"type":"SCALAR"
		},
		{
			"bufferView":28,
			"componentType":5126,
			"count":4368,
			"max":[
				27.006500244140625,
				8.354070663452148,
				38.82826614379883
			],
			"min":[
				-10.079140663146973,
				-6.6923112869262695,
				-4.827214241027832
			],
			"type":"VEC3"
		},
		{
			"bufferView":29,
			"componentType":5126,
			"count":4368,
			"type":"VEC3"
		},
		{
			"bufferView":30,
			"componentType":5126,
			"count":4368,
			"type":"VEC2"
		},
		{
			"bufferView":31,
			"componentType":5121,
			"count":4368,
			"normalized":true,
			"type":"VEC4"
		},
		{
			"bufferView":32,
			"componentType":5126,
			"count":4368,
			"type":"VEC3"
		},
		{
			"bufferView":33,
			"componentType":5123,
			"count":6552,
			"type":"SCALAR"
		}
	],
	"bufferViews":[
		{
			"buffer":0,
			"byteLength":50700,
			"byteOffset":0,
			"target":34962
		},
		{
			"buffer":0,
			"byteLength":50700,
			"byteOffset":50700,
			"target":34962
		},
		{
			"buffer":0,
			"byteLength":33800,
			"byteOffset":101400,
			"target":34962
		},
		{
			"buffer":0,
			"byteLength":49152,
			"byteOffset":135200,
			"target":34963
		},
		{
			"buffer":0,
			"byteLength":284820,
			"byteOffset":184352,
			"target":34962
		},
		{
			"buffer":0,
			"byteLength":284820,
			"byteOffset":469172,
			"target":34962
		},
		{
			"buffer":0,
			"byteLength":189880,
			"byteOffset":753992,
			"target":34962
		},
		{
			"buffer":0,
			"byteLength":94940,
			"byteOffset":943872,
			"target":34962
		},
		{
			"buffer":0,
			"byteLength":284820,
			"byteOffset":1038812,
			"target":34962
		},
		{
			"buffer":0,
			"byteLength":250368,
			"byteOffset":1323632,
			"target":34963
		},
		{
			"buffer":0,
			"byteLength":207204,
			"byteOffset":1574000,
			"target":34962
		},
		{
			"buffer":0,
			"byteLength":207204,
			"byteOffset":1781204,
			"target":34962
		},
		{
			"buffer":0,
			"byteLength":138136,
			"byteOffset":1988408,
			"target":34962
		},
		{
			"buffer":0,
			"byteLength":69068,
			"byteOffset":2126544,
			"target":34962
		},
		{
			"buffer":0,
			"byteLength":207204,
			"byteOffset":2195612,
			"target":34962
		},
		{
			"buffer":0,
			"byteLength":137832,
			"byteOffset":2402816,
			"target":34963
		},
		{
			"buffer":0,
			"byteLength":190944,
			"byteOffset":2540648,
			"target":34962
		},
		{
			"buffer":0,
			"byteLength":190944,
			"byteOffset":2731592,
			"target":34962
		},
		{
			"buffer":0,
			"byteLength":127296,
			"byteOffset":2922536,
			"target":34962
		},
		{
			"buffer":0,
			"byteLength":63648,
			"byteOffset":3049832,
			"target":34962
		},
		{
			"buffer":0,
			"byteLength":190944,
			"byteOffset":3113480,
			"target":34962
		},
		{
			"buffer":0,
			"byteLength":159744,
			"byteOffset":3304424,
			"target":34963
		},
		{
			"buffer":0,
			"byteLength":1383276,
			"byteOffset":3464168,
			"target":34962
		},
		{
			"buffer":0,
			"byteLength":1383276,
			"byteOffset":4847444,
			"target":34962
		},
		{
			"buffer":0,
			"byteLength":922184,
			"byteOffset":6230720,
			"target":34962
		},
		{
			"buffer":0,
			"byteLength":461092,
			"byteOffset":7152904,
			"target":34962
		},
		{
			"buffer":0,
			"byteLength":1383276,
			"byteOffset":7613996,
			"target":34962
		},
		{
			"buffer":0,
			"byteLength":988608,
			"byteOffset":8997272,
			"target":34963
		},
		{
			"buffer":0,
			"byteLength":52416,
			"byteOffset":9985880,
			"target":34962
		},
		{
			"buffer":0,
			"byteLength":52416,
			"byteOffset":10038296,
			"target":34962
		},
		{
			"buffer":0,
			"byteLength":34944,
			"byteOffset":10090712,
			"target":34962
		},
		{
			"buffer":0,
			"byteLength":17472,
			"byteOffset":10125656,
			"target":34962
		},
		{
			"buffer":0,
			"byteLength":52416,
			"byteOffset":10143128,
			"target":34962
		},
		{
			"buffer":0,
			"byteLength":13104,
			"byteOffset":10195544,
			"target":34963
		}
	],
	"samplers":[
		{
			"magFilter":9729,
			"minFilter":9987
		}
	],
	"buffers":[
		{
			"byteLength":10208648,
			"uri":"Desert.bin"
		}
	]
}
