{
	"asset":{
		"generator":"Khronos glTF Blender I/O v4.2.57",
		"version":"2.0"
	},
	"scene":0,
	"scenes":[
		{
			"name":"Scene",
			"nodes":[
				0,
				1,
				3,
				4,
				5,
				6,
				7
			]
		}
	],
	"nodes":[
		{
			"mesh":0,
			"name":"TerrainCalculator",
			"translation":[
				0,
				0.6693949699401855,
				0
			]
		},
		{
			"name":"Boulders"
		},
		{
			"mesh":1,
			"name":"Rockface.002",
			"rotation":[
				-0.05607544630765915,
				0.7447672486305237,
				0.05070044845342636,
				0.6630284786224365
			],
			"scale":[
				1.0635778903961182,
				1.0635778903961182,
				1.0635778903961182
			],
			"translation":[
				-2.461022138595581,
				0.7788878083229065,
				-5.985436916351318
			]
		},
		{
			"children":[
				2
			],
			"name":"RockFaces"
		},
		{
			"name":"FlatBoulders"
		},
		{
			"name":"RockPiles"
		},
		{
			"name":"Rocks"
		},
		{
			"name":"Shrubs"
		}
	],
	"materials":[
		{
			"name":"BoulderMat",
			"normalTexture":{
				"index":0
			},
			"occlusionTexture":{
				"index":1
			},
			"pbrMetallicRoughness":{
				"baseColorTexture":{
					"index":2
				},
				"metallicFactor":0,
				"metallicRoughnessTexture":{
					"index":1
				}
			}
		},
		{
			"doubleSided":true,
			"name":"RocksMat",
			"normalTexture":{
				"index":3
			},
			"occlusionTexture":{
				"index":4
			},
			"pbrMetallicRoughness":{
				"baseColorTexture":{
					"index":5
				},
				"metallicFactor":0,
				"metallicRoughnessTexture":{
					"index":4
				}
			}
		},
		{
			"name":"FlatBoulderMat",
			"normalTexture":{
				"index":6
			},
			"occlusionTexture":{
				"index":7
			},
			"pbrMetallicRoughness":{
				"baseColorTexture":{
					"index":8
				},
				"metallicFactor":0,
				"metallicRoughnessTexture":{
					"index":7
				}
			}
		},
		{
			"doubleSided":true,
			"name":"RockpileMat",
			"normalTexture":{
				"index":9
			},
			"occlusionTexture":{
				"index":10
			},
			"pbrMetallicRoughness":{
				"baseColorTexture":{
					"index":11
				},
				"metallicFactor":0,
				"metallicRoughnessTexture":{
					"index":10
				}
			}
		},
		{
			"alphaMode":"MASK",
			"name":"ShrubMat",
			"normalTexture":{
				"index":12
			},
			"occlusionTexture":{
				"index":13
			},
			"pbrMetallicRoughness":{
				"baseColorTexture":{
					"index":14
				},
				"metallicFactor":0,
				"metallicRoughnessTexture":{
					"index":13
				}
			}
		}
	],
	"meshes":[
		{
			"name":"GroundFlatMesh",
			"primitives":[
				{
					"attributes":{
						"POSITION":0,
						"NORMAL":1,
						"TEXCOORD_0":2
					},
					"indices":3
				}
			]
		},
		{
			"name":"RockfaceMesh",
			"primitives":[
				{
					"attributes":{
						"POSITION":4,
						"NORMAL":5,
						"TEXCOORD_0":6,
						"COLOR_0":7,
						"COLOR_1":8
					},
					"indices":9,
					"material":0
				},
				{
					"attributes":{
						"POSITION":10,
						"NORMAL":11,
						"TEXCOORD_0":12,
						"COLOR_0":13,
						"COLOR_1":14
					},
					"indices":15,
					"material":1
				},
				{
					"attributes":{
						"POSITION":16,
						"NORMAL":17,
						"TEXCOORD_0":18,
						"COLOR_0":19,
						"COLOR_1":20
					},
					"indices":21,
					"material":2
				},
				{
					"attributes":{
						"POSITION":22,
						"NORMAL":23,
						"TEXCOORD_0":24,
						"COLOR_0":25,
						"COLOR_1":26
					},
					"indices":27,
					"material":3
				},
				{
					"attributes":{
						"POSITION":28,
						"NORMAL":29,
						"TEXCOORD_0":30,
						"COLOR_0":31,
						"COLOR_1":32
					},
					"indices":33,
					"material":4
				}
			]
		}
	],
	"textures":[
		{
			"sampler":0,
			"source":0
		},
		{
			"sampler":0,
			"source":1
		},
		{
			"sampler":0,
			"source":2
		},
		{
			"sampler":0,
			"source":3
		},
		{
			"sampler":0,
			"source":4
		},
		{
			"sampler":0,
			"source":5
		},
		{
			"sampler":0,
			"source":6
		},
		{
			"sampler":0,
			"source":7
		},
		{
			"sampler":0,
			"source":8
		},
		{
			"sampler":0,
			"source":9
		},
		{
			"sampler":0,
			"source":10
		},
		{
			"sampler":0,
			"source":11
		},
		{
			"sampler":0,
			"source":12
		},
		{
			"sampler":0,
			"source":13
		},
		{
			"sampler":0,
			"source":14
		}
	],
	"images":[
		{
			"mimeType":"image/png",
			"name":"Boulder_normal",
			"uri":"Boulder_normal.png"
		},
		{
			"mimeType":"image/png",
			"name":"Boulder_orm",
			"uri":"Boulder_orm.png"
		},
		{
			"mimeType":"image/png",
			"name":"Boulder_albedo",
			"uri":"Boulder_albedo.png"
		},
		{
			"mimeType":"image/png",
			"name":"Rocks_normal",
			"uri":"Rocks_normal.png"
		},
		{
			"mimeType":"image/png",
			"name":"Rocks_orm",
			"uri":"Rocks_orm.png"
		},
		{
			"mimeType":"image/png",
			"name":"Rocks_albedo",
			"uri":"Rocks_albedo.png"
		},
		{
			"mimeType":"image/png",
			"name":"FlatBoulder_normal",
			"uri":"FlatBoulder_normal.png"
		},
		{
			"mimeType":"image/png",
			"name":"FlatBoulder_orm",
			"uri":"FlatBoulder_orm.png"
		},
		{
			"mimeType":"image/png",
			"name":"FlatBoulder_albedo",
			"uri":"FlatBoulder_albedo.png"
		},
		{
			"mimeType":"image/png",
			"name":"Rockpile_normal",
			"uri":"Rockpile_normal.png"
		},
		{
			"mimeType":"image/png",
			"name":"Rockpile_orm",
			"uri":"Rockpile_orm.png"
		},
		{
			"mimeType":"image/png",
			"name":"Rockpile_albedo",
			"uri":"Rockpile_albedo.png"
		},
		{
			"mimeType":"image/png",
			"name":"Shrub_normal",
			"uri":"Shrub_normal.png"
		},
		{
			"mimeType":"image/png",
			"name":"Shrub_orm",
			"uri":"Shrub_orm.png"
		},
		{
			"mimeType":"image/png",
			"name":"Shrub_albedo",
			"uri":"Shrub_albedo.png"
		}
	],
	"accessors":[
		{
			"bufferView":0,
			"componentType":5126,
			"count":4225,
			"max":[
				20.000001907348633,
				-0.6693944931030273,
				20.000003814697266
			],
			"min":[
				-20.000001907348633,
				-0.6693954467773438,
				-20.000001907348633
			],
			"type":"VEC3"
		},
		{
			"bufferView":1,
			"componentType":5126,
			"count":4225,
			"type":"VEC3"
		},
		{
			"bufferView":2,
			"componentType":5126,
			"count":4225,
			"type":"VEC2"
		},
		{
			"bufferView":3,
			"componentType":5123,
			"count":24576,
			"type":"SCALAR"
		},
		{
			"bufferView":4,
			"componentType":5126,
			"count":23735,
			"max":[
				14.801610946655273,
				19.837491989135742,
				18.098066329956055
			],
			"min":[
				-23.772315979003906,
				-3.522829055786133,
				-19.1262264251709
			],
			"type":"VEC3"
		},
		{
			"bufferView":5,
			"componentType":5126,
			"count":23735,
			"type":"VEC3"
		},
		{
			"bufferView":6,
			"componentType":5126,
			"count":23735,
			"type":"VEC2"
		},
		{
			"bufferView":7,
			"componentType":5121,
			"count":23735,
			"normalized":true,
			"type":"VEC4"
		},
		{
			"bufferView":8,
			"componentType":5126,
			"count":23735,
			"type":"VEC3"
		},
		{
			"bufferView":9,
			"componentType":5123,
			"count":125184,
			"type":"SCALAR"
		},
		{
			"bufferView":10,
			"componentType":5126,
			"count":17267,
			"max":[
				14.802807807922363,
				19.281644821166992,
				22.246440887451172
			],
			"min":[
				-26.682029724121094,
				-3.5713772773742676,
				-18.792194366455078
			],
			"type":"VEC3"
		},
		{
			"bufferView":11,
			"componentType":5126,
			"count":17267,
			"type":"VEC3"
		},
		{
			"bufferView":12,
			"componentType":5126,
			"count":17267,
			"type":"VEC2"
		},
		{
			"bufferView":13,
			"componentType":5121,
			"count":17267,
			"normalized":true,
			"type":"VEC4"
		},
		{
			"bufferView":14,
			"componentType":5126,
			"count":17267,
			"type":"VEC3"
		},
		{
			"bufferView":15,
			"componentType":5123,
			"count":68916,
			"type":"SCALAR"
		},
		{
			"bufferView":16,
			"componentType":5126,
			"count":15912,
			"max":[
				15.296270370483398,
				16.35251808166504,
				16.634510040283203
			],
			"min":[
				-21.998123168945312,
				-2.8896310329437256,
				-18.55303192138672
			],
			"type":"VEC3"
		},
		{
			"bufferView":17,
			"componentType":5126,
			"count":15912,
			"type":"VEC3"
		},
		{
			"bufferView":18,
			"componentType":5126,
			"count":15912,
			"type":"VEC2"
		},
		{
			"bufferView":19,
			"componentType":5121,
			"count":15912,
			"normalized":true,
			"type":"VEC4"
		},
		{
			"bufferView":20,
			"componentType":5126,
			"count":15912,
			"type":"VEC3"
		},
		{
			"bufferView":21,
			"componentType":5123,
			"count":79872,
			"type":"SCALAR"
		},
		{
			"bufferView":22,
			"componentType":5126,
			"count":115273,
			"max":[
				13.30660343170166,
				9.763797760009766,
				18.738418579101562
			],
			"min":[
				-23.422391891479492,
				-3.131932258605957,
				-14.377700805664062
			],
			"type":"VEC3"
		},
		{
			"bufferView":23,
			"componentType":5126,
			"count":115273,
			"type":"VEC3"
		},
		{
			"bufferView":24,
			"componentType":5126,
			"count":115273,
			"type":"VEC2"
		},
		{
			"bufferView":25,
			"componentType":5121,
			"count":115273,
			"normalized":true,
			"type":"VEC4"
		},
		{
			"bufferView":26,
			"componentType":5126,
			"count":115273,
			"type":"VEC3"
		},
		{
			"bufferView":27,
			"componentType":5125,
			"count":247152,
			"type":"SCALAR"
		},
		{
			"bufferView":28,
			"componentType":5126,
			"count":4368,
			"max":[
				12.483551025390625,
				17.671794891357422,
				18.991315841674805
			],
			"min":[
				-24.456043243408203,
				-3.011979818344116,
				-12.469195365905762
			],
			"type":"VEC3"
		},
		{
			"bufferView":29,
			"componentType":5126,
			"count":4368,
			"type":"VEC3"
		},
		{
			"bufferView":30,
			"componentType":5126,
			"count":4368,
			"type":"VEC2"
		},
		{
			"bufferView":31,
			"componentType":5121,
			"count":4368,
			"normalized":true,
			"type":"VEC4"
		},
		{
			"bufferView":32,
			"componentType":5126,
			"count":4368,
			"type":"VEC3"
		},
		{
			"bufferView":33,
			"componentType":5123,
			"count":6552,
			"type":"SCALAR"
		}
	],
	"bufferViews":[
		{
			"buffer":0,
			"byteLength":50700,
			"byteOffset":0,
			"target":34962
		},
		{
			"buffer":0,
			"byteLength":50700,
			"byteOffset":50700,
			"target":34962
		},
		{
			"buffer":0,
			"byteLength":33800,
			"byteOffset":101400,
			"target":34962
		},
		{
			"buffer":0,
			"byteLength":49152,
			"byteOffset":135200,
			"target":34963
		},
		{
			"buffer":0,
			"byteLength":284820,
			"byteOffset":184352,
			"target":34962
		},
		{
			"buffer":0,
			"byteLength":284820,
			"byteOffset":469172,
			"target":34962
		},
		{
			"buffer":0,
			"byteLength":189880,
			"byteOffset":753992,
			"target":34962
		},
		{
			"buffer":0,
			"byteLength":94940,
			"byteOffset":943872,
			"target":34962
		},
		{
			"buffer":0,
			"byteLength":284820,
			"byteOffset":1038812,
			"target":34962
		},
		{
			"buffer":0,
			"byteLength":250368,
			"byteOffset":1323632,
			"target":34963
		},
		{
			"buffer":0,
			"byteLength":207204,
			"byteOffset":1574000,
			"target":34962
		},
		{
			"buffer":0,
			"byteLength":207204,
			"byteOffset":1781204,
			"target":34962
		},
		{
			"buffer":0,
			"byteLength":138136,
			"byteOffset":1988408,
			"target":34962
		},
		{
			"buffer":0,
			"byteLength":69068,
			"byteOffset":2126544,
			"target":34962
		},
		{
			"buffer":0,
			"byteLength":207204,
			"byteOffset":2195612,
			"target":34962
		},
		{
			"buffer":0,
			"byteLength":137832,
			"byteOffset":2402816,
			"target":34963
		},
		{
			"buffer":0,
			"byteLength":190944,
			"byteOffset":2540648,
			"target":34962
		},
		{
			"buffer":0,
			"byteLength":190944,
			"byteOffset":2731592,
			"target":34962
		},
		{
			"buffer":0,
			"byteLength":127296,
			"byteOffset":2922536,
			"target":34962
		},
		{
			"buffer":0,
			"byteLength":63648,
			"byteOffset":3049832,
			"target":34962
		},
		{
			"buffer":0,
			"byteLength":190944,
			"byteOffset":3113480,
			"target":34962
		},
		{
			"buffer":0,
			"byteLength":159744,
			"byteOffset":3304424,
			"target":34963
		},
		{
			"buffer":0,
			"byteLength":1383276,
			"byteOffset":3464168,
			"target":34962
		},
		{
			"buffer":0,
			"byteLength":1383276,
			"byteOffset":4847444,
			"target":34962
		},
		{
			"buffer":0,
			"byteLength":922184,
			"byteOffset":6230720,
			"target":34962
		},
		{
			"buffer":0,
			"byteLength":461092,
			"byteOffset":7152904,
			"target":34962
		},
		{
			"buffer":0,
			"byteLength":1383276,
			"byteOffset":7613996,
			"target":34962
		},
		{
			"buffer":0,
			"byteLength":988608,
			"byteOffset":8997272,
			"target":34963
		},
		{
			"buffer":0,
			"byteLength":52416,
			"byteOffset":9985880,
			"target":34962
		},
		{
			"buffer":0,
			"byteLength":52416,
			"byteOffset":10038296,
			"target":34962
		},
		{
			"buffer":0,
			"byteLength":34944,
			"byteOffset":10090712,
			"target":34962
		},
		{
			"buffer":0,
			"byteLength":17472,
			"byteOffset":10125656,
			"target":34962
		},
		{
			"buffer":0,
			"byteLength":52416,
			"byteOffset":10143128,
			"target":34962
		},
		{
			"buffer":0,
			"byteLength":13104,
			"byteOffset":10195544,
			"target":34963
		}
	],
	"samplers":[
		{
			"magFilter":9729,
			"minFilter":9987
		}
	],
	"buffers":[
		{
			"byteLength":10208648,
			"uri":"Desert.bin"
		}
	]
}
